<svg t="1598687657614" class="icon" viewBox="0 0 1170 1024" version="1.1" xmlns="http://www.w3.org/2000/svg" p-id="2115" width="128" height="128"><path d="M387.657143 0H131.657143C58.514286 0 0 58.514286 0 131.657143v694.857143c0 36.571429 14.628571 65.828571 36.571429 95.085714 21.942857 21.942857 58.514286 36.571429 95.085714 36.571429h387.657143c14.628571 0 29.257143-14.628571 29.257143-29.257143s-14.628571-29.257143-29.257143-29.257143H131.657143c-36.571429 0-65.828571-29.257143-65.828572-65.828572V131.657143c0-36.571429 29.257143-65.828571 65.828572-65.828572h782.628571c36.571429 0 65.828571 29.257143 65.828572 65.828572V438.857143c0 14.628571 14.628571 29.257143 29.257143 29.257143s29.257143-14.628571 29.257142-29.257143V131.657143c0-73.142857-58.514286-131.657143-131.657142-131.657143H658.285714M585.142857 0H453.485714" p-id="2116"></path><path d="M402.285714 263.314286h431.542857c14.628571 0 29.257143-14.628571 29.257143-36.571429s-14.628571-29.257143-29.257143-29.257143H402.285714c-14.628571 0-21.942857 7.314286-29.257143 14.628572-7.314286 14.628571-7.314286 29.257143 0 36.571428 7.314286 7.314286 14.628571 14.628571 29.257143 14.628572zM241.371429 182.857143c29.257143 0 51.2 29.257143 51.2 58.514286s-21.942857 51.2-51.2 51.2c-36.571429 0-58.514286-21.942857-58.514286-51.2 0-29.257143 21.942857-58.514286 58.514286-58.514286z m358.4 270.628571c0-7.314286 0-14.628571-7.314286-21.942857-7.314286-7.314286-14.628571-14.628571-21.942857-14.628571H402.285714c-14.628571 0-21.942857 7.314286-29.257143 21.942857s-7.314286 21.942857 0 29.257143c7.314286 7.314286 14.628571 14.628571 29.257143 14.628571h168.228572c7.314286 0 14.628571 0 21.942857-7.314286 7.314286-7.314286 7.314286-14.628571 7.314286-21.942857z m-358.4-51.2c29.257143 0 51.2 21.942857 51.2 51.2 0 36.571429-21.942857 58.514286-51.2 58.514286-36.571429 0-58.514286-21.942857-58.514286-58.514286 0-29.257143 21.942857-51.2 58.514286-51.2z m160.914285 234.057143c-21.942857 0-36.571429 14.628571-36.571428 36.571429 0 14.628571 14.628571 29.257143 29.257143 29.257143h80.457142c14.628571 0 29.257143-14.628571 29.257143-29.257143s0-36.571429-21.942857-36.571429H402.285714z m-160.914285-14.628571c29.257143 0 51.2 21.942857 51.2 51.2 0 29.257143-21.942857 58.514286-51.2 58.514285-29.257143 0-51.2-21.942857-51.2-51.2-7.314286-36.571429 14.628571-58.514286 51.2-58.514285zM1133.714286 643.657143l7.314285 7.314286-51.2 65.828571c-7.314286 7.314286-7.314286 29.257143 0 36.571429l51.2 58.514285-7.314285 7.314286c-7.314286 29.257143-29.257143 58.514286-51.2 87.771429l-7.314286 7.314285-80.457143-14.628571c-14.628571 0-29.257143 7.314286-29.257143 21.942857l-29.257143 80.457143h-7.314285c-43.885714 7.314286-80.457143 7.314286-124.342857 0h-14.628572l-29.257143-73.142857c-7.314286-14.628571-21.942857-21.942857-29.257143-21.942857l-80.457142 14.628571-7.314286-7.314286c-7.314286-7.314286-21.942857-21.942857-29.257143-36.571428-7.314286-14.628571-14.628571-29.257143-21.942857-51.2l-7.314286-14.628572 51.2-58.514285c7.314286-7.314286 7.314286-29.257143 0-36.571429L585.142857 650.971429l7.314286-7.314286c7.314286-36.571429 29.257143-58.514286 51.2-87.771429l7.314286-7.314285 80.457142 14.628571c14.628571 0 29.257143-7.314286 36.571429-21.942857l29.257143-73.142857h7.314286c36.571429-7.314286 80.457143-7.314286 124.342857 0h14.628571l29.257143 73.142857c7.314286 14.628571 21.942857 21.942857 36.571429 21.942857l80.457142-7.314286 7.314286 7.314286c0 7.314286 7.314286 21.942857 14.628572 36.571429 7.314286 7.314286 14.628571 21.942857 21.942857 43.885714z m-80.457143-14.628572c-7.314286-7.314286-7.314286-14.628571-14.628572-21.942857l-51.2 7.314286c-29.257143 7.314286-65.828571-14.628571-73.142857-43.885714l-14.628571-43.885715c-21.942857-7.314286-43.885714-7.314286-73.142857 0l-14.628572 43.885715c-7.314286 29.257143-43.885714 51.2-73.142857 43.885714l-51.2-14.628571c-14.628571 14.628571-21.942857 36.571429-29.257143 51.2l36.571429 36.571428c21.942857 21.942857 21.942857 58.514286 0 87.771429l-36.571429 36.571428c7.314286 7.314286 7.314286 14.628571 14.628572 29.257143 7.314286 7.314286 7.314286 14.628571 14.628571 21.942857l51.2-7.314285c29.257143-7.314286 65.828571 14.628571 73.142857 43.885714l14.628572 43.885714c21.942857 7.314286 51.2 7.314286 73.142857 0l14.628571-51.2c7.314286-29.257143 43.885714-51.2 73.142857-43.885714l51.2 7.314286c7.314286-14.628571 21.942857-29.257143 21.942858-43.885715l-29.257143-36.571428c-21.942857-21.942857-21.942857-58.514286 0-87.771429l36.571428-36.571428c-7.314286-7.314286-14.628571-14.628571-14.628571-21.942858z m-190.171429 204.8c-51.2 0-95.085714-43.885714-95.085714-95.085714s43.885714-95.085714 95.085714-95.085714c51.2 0 95.085714 43.885714 95.085715 95.085714s-43.885714 95.085714-95.085715 95.085714z m0-43.885714c29.257143 0 51.2-21.942857 51.2-51.2s-21.942857-51.2-51.2-51.2c-29.257143 0-51.2 21.942857-51.2 51.2s21.942857 51.2 51.2 51.2z" p-id="2117"></path></svg>