<svg t="1599384684934" class="icon" viewBox="0 0 1024 1024" version="1.1" xmlns="http://www.w3.org/2000/svg" p-id="2644" width="128" height="128"><path d="M701.44 281.258667a55.751111 55.751111 0 1 1 111.616 0 55.751111 55.751111 0 0 1-111.559111 0z m-241.891556 0a55.751111 55.751111 0 1 1 111.559112 0 55.751111 55.751111 0 0 1-111.559112 0z m-241.095111 0a55.751111 55.751111 0 1 1 111.616 0 55.751111 55.751111 0 0 1-111.616 0z m556.999111 500.053333H255.601778a37.205333 37.205333 0 1 1 0-74.410667h519.850666a37.148444 37.148444 0 1 1 0 74.410667zM666.339556 559.786667H255.715556a37.205333 37.205333 0 0 1 0-74.410667h410.624a37.205333 37.205333 0 1 1 0 74.410667z m-484.693334-447.374223a37.262222 37.262222 0 0 0-37.262222 37.148445v743.992889c0 20.48 16.725333 37.148444 37.205333 37.148444h669.582223c20.48 0 37.205333-16.611556 37.205333-37.148444V149.504a37.205333 37.205333 0 0 0-37.205333-37.148444H181.589333z m669.525334 892.700445H181.589333a111.729778 111.729778 0 0 1-111.559111-111.559111V149.504c0-61.44 50.062222-111.559111 111.559111-111.559111h669.582223c61.553778 0 111.559111 50.062222 111.559111 111.559111v743.992889c0 61.553778-50.062222 111.559111-111.559111 111.559111z" fill="#ffffff" p-id="2645"></path></svg>